<svg width="580" height="616" viewBox="0 0 580 616" fill="none" xmlns="http://www.w3.org/2000/svg">
<g transform="scale(-1, 1) translate(-580, 0)">
<path fill-rule="evenodd" clip-rule="evenodd" d="M223.695 532.782C160.901 532.782 62.8784 567.297 62.8784 587.197C62.8784 607.096 113.77 604.859 176.564 604.859C239.357 604.859 290.249 588.72 290.249 568.82C290.249 557.728 286.488 532.782 223.695 532.782Z" fill="#5555AA"/>
<path fill-rule="evenodd" clip-rule="evenodd" d="M245.108 0.385498C158.796 0.385498 112.903 146.253 78.9594 254.178C78.1025 256.939 77.2456 259.653 76.3887 262.367C-9.58953 333.253 -48.6749 486.595 102.144 545.438C253.011 604.327 404.782 576.906 457.387 538.63C523.752 490.356 538.843 348.535 457.387 272.364C551.697 183.053 621.441 76.5566 551.697 36.2811C498.139 5.33662 402.925 82.2695 336.37 214.046C304.141 208.047 259.295 206.857 217.115 214.046C223.161 197.954 231.111 179.721 239.3 160.869C272.196 85.6496 309.425 0.385498 245.108 0.385498ZM180.315 361.103C180.315 387.382 166.033 408.71 148.37 408.71C130.708 408.71 116.474 387.382 116.474 361.103C116.474 334.824 130.756 313.496 148.37 313.496C165.985 313.496 180.315 334.824 180.315 361.103ZM312.567 418.327C330.182 418.327 344.464 396.999 344.464 370.72C344.464 344.441 330.182 323.113 312.567 323.113C294.952 323.113 280.67 344.441 280.67 370.72C280.67 396.999 294.952 418.327 312.567 418.327Z" fill="#8D8DFD"/>
<path fill-rule="evenodd" clip-rule="evenodd" d="M180.315 361.097C180.315 387.376 165.985 408.704 148.371 408.704C130.756 408.704 116.474 387.376 116.474 361.097C116.474 334.818 130.756 313.49 148.371 313.49C165.985 313.49 180.315 334.818 180.315 361.097Z" fill="#253061"/>
<mask id="mask0_270_1220" style="mask-type:luminance" maskUnits="userSpaceOnUse" x="116" y="313" width="65" height="96">
<path d="M180.313 361.093C180.313 387.372 165.983 408.7 148.368 408.7C130.754 408.7 116.472 387.372 116.472 361.093C116.472 334.814 130.754 313.486 148.368 313.486C165.983 313.486 180.313 334.814 180.313 361.093Z" fill="white"/>
</mask>
<g mask="url(#mask0_270_1220)">
<path fill-rule="evenodd" clip-rule="evenodd" d="M180.313 361.093C180.313 387.372 165.983 408.7 148.368 408.7C130.754 408.7 116.472 387.372 116.472 361.093C116.472 334.814 130.754 313.486 148.368 313.486C165.983 313.486 180.313 334.814 180.313 361.093Z" fill="#253061"/>
</g>
<path fill-rule="evenodd" clip-rule="evenodd" d="M344.499 370.717C344.499 396.996 330.17 418.324 312.555 418.324C294.94 418.324 280.658 396.996 280.658 370.717C280.658 344.438 294.94 323.11 312.555 323.11C330.17 323.11 344.499 344.438 344.499 370.717Z" fill="#253061"/>
<mask id="mask1_270_1220" style="mask-type:luminance" maskUnits="userSpaceOnUse" x="280" y="323" width="65" height="96">
<path d="M344.502 370.733C344.502 397.013 330.172 418.34 312.558 418.34C294.943 418.34 280.661 397.013 280.661 370.733C280.661 344.454 294.943 323.126 312.558 323.126C330.172 323.126 344.502 344.454 344.502 370.733Z" fill="white"/>
</mask>
<g mask="url(#mask1_270_1220)">
<path fill-rule="evenodd" clip-rule="evenodd" d="M344.468 370.733C344.468 397.012 330.138 418.34 312.524 418.34C294.909 418.34 280.627 397.012 280.627 370.733C280.627 344.454 294.909 323.126 312.524 323.126C330.138 323.126 344.468 344.454 344.468 370.733Z" fill="#253061"/>
</g>
<path d="M152.083 356.3C160.023 356.3 166.46 349.863 166.46 341.922C166.46 333.982 160.023 327.545 152.083 327.545C144.143 327.545 137.706 333.982 137.706 341.922C137.706 349.863 144.143 356.3 152.083 356.3Z" fill="white"/>
<path d="M316.711 366.316C324.651 366.316 331.088 359.879 331.088 351.939C331.088 343.998 324.651 337.561 316.711 337.561C308.77 337.561 302.333 343.998 302.333 351.939C302.333 359.879 308.77 366.316 316.711 366.316Z" fill="white"/>
<path fill-rule="evenodd" clip-rule="evenodd" d="M391.634 543.346C328.841 543.346 230.818 578.004 230.818 597.952C230.818 617.899 281.71 615.661 344.503 615.661C407.297 615.661 458.189 599.475 458.189 579.48C458.189 568.34 454.428 543.299 391.634 543.299V543.346Z" fill="#6868C6"/>
</g>
</svg>
