<svg width="135" height="292" viewBox="0 0 135 292" fill="none" xmlns="http://www.w3.org/2000/svg">
<path d="M81.9049 24.3551C85.6649 13.0233 98.5153 7.56205 109.283 12.7197V12.7197C120.051 17.8773 123.85 31.3132 117.377 41.3456L91.9302 80.785C88.1452 86.6512 80.5886 88.7878 74.2923 85.772V85.772C67.996 82.7562 64.9245 75.5289 67.1231 68.9028L81.9049 24.3551Z" fill="#AFD76E"/>
<path d="M53.6706 24.3551C49.9105 13.0233 37.0602 7.56205 26.2923 12.7197V12.7197C15.5244 17.8773 11.7255 31.3132 18.1985 41.3456L43.6453 80.785C47.4302 86.6512 54.9869 88.7878 61.2832 85.772V85.772C67.5795 82.7562 70.651 75.5289 68.4523 68.9028L53.6706 24.3551Z" fill="#AFD76E"/>
<path d="M47.8344 22.3208C46.3304 10.4765 55.5606 0 67.5 0V0C79.4394 0 88.6696 10.4765 87.1656 22.3208L81.253 68.883C80.3735 75.8087 74.4813 81 67.5 81V81C60.5187 81 54.6265 75.8087 53.747 68.883L47.8344 22.3208Z" fill="#C4EB84"/>
<path d="M135 123.5C135 160.779 112.779 291.5 67.5 291.5C22.2208 291.5 0 160.779 0 123.5C0 86.2208 30.2208 56 67.5 56C104.779 56 135 86.2208 135 123.5Z" fill="#FFC16F"/>
<rect x="35" y="116" width="66" height="8" rx="4" fill="#FFDD6F"/>
<rect x="41" y="164" width="54" height="8" rx="4" fill="#FFDD6F"/>
<rect x="41" y="212" width="54" height="8" rx="4" fill="#FFDD6F"/>
</svg>
